<svg xmlns="http://www.w3.org/2000/svg" width="50.6" height="100" viewBox="0 0 50.6 100"><path fill="#b4fff4" d="M46.1 74.1l-7.4-12.2a54.2 54.2 0 0 0 2.5-15.1 12.7 12.7 0 0 0-.1-2c-.7-13.6-6-18.5-9.9-22.4a19 19 0 0 1-4.3-5.7 4.4 4.4 0 0 0 1.6-.6 2.2 2.2 0 0 0 1.1-2.1l-.2-.5c-.3-.3-1.2-.5-2.8-.6a7.7 7.7 0 0 1 .1-2.6c0-.4 0-.4.7-.5h.1a.8.8 0 0 0 .8-.5 1.5 1.5 0 0 0-.3-1.6v-.4a16.7 16.7 0 0 1-1.6-5.4 2.2 2.2 0 0 0-.7-1.8h-.6c-.2.1-.6.3-.6 1.8s-.3 2.1-1.6 5.5v.2h-.1a2.1 2.1 0 0 0-.4 1.1.6.6 0 0 0 .1.4 1 1 0 0 0 .8.5h.1c.7.1.7.1.8.5s.1 1.1.1 1.6a3.1 3.1 0 0 1-.1 1 5.7 5.7 0 0 0-2.8.6l-.2.5a2.4 2.4 0 0 0 1.1 2.2 4.9 4.9 0 0 0 1.7.6h-.1a17.5 17.5 0 0 1-4.5 5.7c-3.9 4-9.2 8.8-9.9 22.4 0 .6-.1 1.3-.1 2a54.2 54.2 0 0 0 2.5 15.1L4.5 74.1 0 100h5l4.8-16.5 7.9-6.6h.3l.8.3c.2.8.3 1.6.4 2.2s.3 1.4 4 1.7V100h4.2V81.2c3.9-.2 4.1-1.3 4.2-1.7s.2-1.4.3-2.2l.9-.3h.2l7.8 6.5 4.8 16.5h5z"/></svg>